<svg xmlns="http://www.w3.org/2000/svg" viewBox="0 0 19.01 17.55"><defs><style>.a{fill:#b9b9b9;stroke:#b9b9b9;stroke-miterlimit:10;stroke-width:0.25px;}</style></defs><path class="a" d="M.6,18.92V18c2.3-.21,2.68-.59,2.7-3V4.48a1.55,1.55,0,0,0-.4-1.16A3.8,3.8,0,0,0,.6,2.56V1.65H5.76l9.82,13V5.72c0-2.59-.29-2.91-3.13-3.18V1.65h6.91v.89c-2.24.24-2.64.67-2.64,3.15V16.11A27.93,27.93,0,0,0,16.83,19H14.5c-.43-.65-1.16-1.68-1.75-2.51L4.46,5.13V15c0,2.43.54,2.78,3.05,3v.92Z" transform="translate(-0.48 -1.52)"/></svg>