<svg xmlns="http://www.w3.org/2000/svg" viewBox="0 0 515.73 382"><defs><style>.a,.c{fill:none;}.a,.c,.d{stroke:#b9b9b9;stroke-miterlimit:10;}.a{stroke-width:23px;}.b,.d{fill:#b9b9b9;}.d{stroke-width:0.25px;}</style></defs><line class="a" x1="90.23" y1="5.5" x2="163.23" y2="257.5"/><line class="a" x1="112.23" y1="83.5" x2="511.23" y2="86.5"/><line class="a" x1="152.73" y1="250.5" x2="434.73" y2="251.5"/><line class="a" x1="505.23" y1="83.5" x2="424.23" y2="257.5"/><line class="a" x1="101.23" y1="13.5" x2="0.23" y2="11.5"/><circle class="a" cx="205.73" cy="325" r="45.5"/><circle class="a" cx="392.73" cy="325" r="45.5"/><line class="a" x1="504.23" y1="78" x2="504.23" y2="88"/><line class="a" x1="504.23" y1="75" x2="504.23" y2="85"/><path class="b" d="M874.5,514.3a1.5,1.5,0,0,0,0-3,1.5,1.5,0,0,0,0,3Z" transform="translate(-360.27 -425)"/><path class="b" d="M874.55,514.41a1.5,1.5,0,0,0,0-3,1.5,1.5,0,0,0,0,3Z" transform="translate(-360.27 -425)"/><circle class="c" cx="205.73" cy="325" r="16.5"/><circle class="c" cx="392.73" cy="325" r="16.5"/><path class="b" d="M557.77,746.93a1.5,1.5,0,0,0,0-3,1.5,1.5,0,0,0,0,3Z" transform="translate(-360.27 -425)"/><path class="b" d="M752.83,768a18.59,18.59,0,0,0,12.73-5.27A20,20,0,0,0,770.83,750c-.21-4.65-1.74-9.48-5.27-12.73a18,18,0,0,0-25.46,0A20.08,20.08,0,0,0,734.83,750c.21,4.66,1.74,9.48,5.27,12.73A18.71,18.71,0,0,0,752.83,768Z" transform="translate(-360.27 -425)"/><path class="b" d="M565.94,768a18.57,18.57,0,0,0,12.72-5.27,13.5,13.5,0,0,0,3.73-5.79,13.69,13.69,0,0,0,1.55-6.94c-.21-4.65-1.74-9.48-5.28-12.73a18,18,0,0,0-25.45,0A20.08,20.08,0,0,0,547.94,750c.2,4.66,1.73,9.48,5.27,12.73A18.71,18.71,0,0,0,565.94,768Z" transform="translate(-360.27 -425)"/><path class="d" d="M611.81,640.57v-5c12.9-1.14,15-3.21,15.14-16.3V562.12a8.25,8.25,0,0,0-2.24-6.3,21.82,21.82,0,0,0-12.9-4.13v-4.94h28.93l55.07,70.62V568.86c0-14.07-1.63-15.81-17.55-17.27v-4.84H717v4.84c-12.56,1.3-14.8,3.63-14.8,17.11v56.6a147,147,0,0,0,.61,15.7H689.75c-2.41-3.53-6.5-9.13-9.81-13.63l-46.49-61.72v53.62c0,13.2,3,15.1,17.11,16.3v5Z" transform="translate(-360.27 -425)"/></svg>