<svg xmlns="http://www.w3.org/2000/svg" viewBox="0 0 1445.67 311.23"><defs><style>.a{fill:#b9b9b9;stroke:#b9b9b9;stroke-miterlimit:10;stroke-width:0.25px;}</style></defs><path class="a" d="M35.21,364.49V348.92c38.93-3.67,45.35-10.08,45.8-50.84V119.46c0-6.41-1.37-15.11-6.87-19.69C65,91.07,53.53,89.24,35.21,87V71.38h87.48L289.4,291.21V140.53c0-44-5-49.46-53.13-54V71.38H353.52V86.49c-38,4.12-44.88,11.45-44.88,53.58V316.86c0,18.32.45,36.64,1.83,48.09H271.08c-7.33-11-19.69-28.4-29.77-42.59l-140.6-191.9V298.08c0,41.22,9.16,47.17,51.75,50.84v15.57Z" transform="translate(-35.09 -59.34)"/><path class="a" d="M559.62,348.46c-16.49,17-36.18,22-49.46,22-10.08,0-23.36-3.66-31.15-25.64-25.64,18.77-42.13,25.64-59.08,25.64-22.9,0-44.42-21.06-44.42-52.21,0-20.61,11.45-32.06,31.6-42.59,21.06-10.53,41.68-17.86,72.36-31.14.46-16.49.46-29.77,0-34.81-.46-13.28-14.2-31.14-34.81-31.14-4.58,0-14.2,4.12-23.81,10.53-5.5,3.66-7.33,5.5-7.33,7.33,0,1.37.92,3.66,2.29,6.41,4.12,7.78,6.87,13.28,6.87,18.78,0,9.61-16.49,22.44-27.94,22.44-13.28,0-23.36-15.12-23.36-27.94,0-4.58,2.29-12.37,19.24-23.81,30.69-22,66.87-38,76.94-38,24.73,0,41.68,11.45,53.13,29.31,8.7,12.83,8.24,31.15,8.24,45.34,0,26.11-.91,85.19-.91,105.34,0,5,3.66,7.33,9.16,7.33,3.66,0,11.9-1.37,22.44-7.33Zm-115-73.74c-13.74,7.79-19.23,16-19.23,31.61,0,10.53,2.74,21.06,9.61,28.39a21.75,21.75,0,0,0,16.49,7.79c5,0,13.28-1.38,19.24-6,6.41-5,7.33-7.78,7.33-18.77.91-18.78,1.37-50.38,1.37-59.09C464.36,264.65,451.08,270.6,444.66,274.72Z" transform="translate(-35.09 -59.34)"/><path class="a" d="M596.92,364.49v-15.3c31.5-3.15,40.05-5.85,40.05-27.9V119.69c0-21.15-9.45-26.1-40.05-27.9V76.49H770.17c32.85,0,51.3-1.35,59.85-2.7-1.35,13.5,4.05,58.5,9,84.15l-13.5,3.6c-11.25-28.35-22.95-49-38.25-60.3-8.55-5.4-17.55-7.65-30.15-7.65h-50c-10.8,0-13.95,2.7-13.95,16.2v102.6h43.65c29.25,0,32-17.1,37.35-49.95h13.95c0,8.55-1.35,29.25-1.35,55.8,0,31.95,1.35,54.9,1.35,62.1H774.22c-6.75-35.1-9.45-49.5-37.35-49.5H693.22v90.9c0,21.15,7.65,25.2,44.55,27.45v15.3Z" transform="translate(-35.09 -59.34)"/><path class="a" d="M875.62,364.49V348.92c27-1.83,30.23-3.21,30.23-18.78V225.26c0-22.9-1.37-24.73-5.49-29.31-4.13-4.12-10.54-7.79-18.78-11.45v-11c27.48-2.75,62.28-13.74,73.73-19.24l3.67,2.29c-.46,7.79-1.38,26.57-1.38,57.71V329.68c0,15.57,2.75,17.41,26.57,19.7v15.11Zm52.67-305c17,0,28.4,14.2,28.4,30.22,0,17.87-11.91,30.23-28.86,30.23-18.77,0-28.85-15.11-28.85-30.23C899,75.5,908.6,59.47,928.29,59.47Z" transform="translate(-35.09 -59.34)"/><path class="a" d="M1002.49,71.38h140.6V87c-9.16.91-18.32,1.37-27.48,3.66-9.16,1.83-13.28,5.5-9.62,17,16.49,49.46,52.21,148.84,65,185,19.69-45.8,60.91-144.73,71-172.67,7.32-21.07,2.74-26.56-13.29-29.77-10.53-1.83-20.61-2.75-27-3.2V71.38h109.92V87c-29.31,3.66-34.81,6.41-47.17,33.43-18.32,39.85-89.31,205.18-106.26,250.06h-20.61c-13.28-44.88-73.73-213-91.59-257.39-8.25-20.61-16.49-23.81-43.51-26.1Z" transform="translate(-35.09 -59.34)"/><path class="a" d="M1480.64,348.46c-16.49,17-36.18,22-49.47,22-10.07,0-23.35-3.66-31.14-25.64-25.65,18.77-42.14,25.64-59.08,25.64-22.9,0-44.43-21.06-44.43-52.21,0-20.61,11.45-32.06,31.61-42.59,21.06-10.53,41.67-17.86,72.36-31.14.46-16.49.46-29.77,0-34.81-.46-13.28-14.2-31.14-34.81-31.14-4.58,0-14.2,4.12-23.81,10.53-5.5,3.66-7.33,5.5-7.33,7.33,0,1.37.91,3.66,2.29,6.41,4.12,7.78,6.87,13.28,6.87,18.78,0,9.61-16.49,22.44-27.94,22.44-13.28,0-23.36-15.12-23.36-27.94,0-4.58,2.29-12.37,19.24-23.81,30.68-22,66.86-38,76.94-38,24.73,0,41.68,11.45,53.13,29.31,8.7,12.83,8.24,31.15,8.24,45.34,0,26.11-.91,85.19-.91,105.34,0,5,3.66,7.33,9.16,7.33,3.66,0,11.9-1.37,22.44-7.33Zm-115-73.74c-13.74,7.79-19.23,16-19.23,31.61,0,10.53,2.74,21.06,9.61,28.39a21.75,21.75,0,0,0,16.49,7.79c5,0,13.28-1.38,19.24-6,6.41-5,7.32-7.78,7.32-18.77.92-18.78,1.38-50.38,1.38-59.09C1385.37,264.65,1372.09,270.6,1365.68,274.72Z" transform="translate(-35.09 -59.34)"/></svg>